<svg width="409" height="210" viewBox="0 0 409 210" fill="none" xmlns="http://www.w3.org/2000/svg">
<g clip-path="url(#clip0_15_169)">
<path d="M390.845 115.58L389.564 125.782L386.384 151.122H322.505C323.004 145.442 323.686 137.267 324.414 128.442C324.486 127.561 324.561 126.674 324.633 125.782C326.46 103.598 328.459 78.4952 328.459 78.4952L336.857 80.0597L353.151 83.0895L359.79 84.3234L377.57 87.6341C386.435 89.2812 392.532 102.117 390.845 115.58Z" fill="#F2F2F2"/>
<path d="M342.527 37.4445L350.382 51.1912L335.284 61.8913L328.843 44.9941L342.527 37.4445Z" fill="#FFB6B6"/>
<path d="M332.526 50.4495C343.274 50.4495 351.987 41.7366 351.987 30.9887C351.987 20.2408 343.274 11.5278 332.526 11.5278C321.778 11.5278 313.065 20.2408 313.065 30.9887C313.065 41.7366 321.778 50.4495 332.526 50.4495Z" fill="#FFB6B6"/>
<path d="M331.129 35.3393C329.583 32.9875 330.19 31.7574 328.896 30.8932C328.896 30.8931 328.376 30.5454 324.65 30.3471C323.816 24.3434 322.774 23.6153 322.774 23.6153C321.574 22.7762 319.793 23.0488 318.685 23.562C316.342 24.6475 316.614 26.9921 315.036 27.4408C312.856 28.0606 308.89 24.5665 308.5 20.5665C308.181 17.3036 310.283 14.1346 311.117 14.3022C311.944 14.4684 313.923 11.9416 314.992 11.9806C315.721 12.0072 318.704 10.711 319.506 10.8124C320.382 10.9231 323.27 12.4305 323.391 12.0861C324.227 9.69285 323.981 9.02884 324.691 8.34419C325.949 7.13101 328.006 7.97584 331.234 8.42939C337.875 9.36259 339.034 7.17289 342.437 8.65708C344.156 9.40683 345.595 11.4288 348.402 15.4421C352.327 21.0547 354.29 23.861 354.302 27.1342C354.315 30.4722 352.699 30.2603 351.989 35.202C351.198 40.7029 352.878 43.2182 351.043 45.0053C349.625 46.3865 346.743 46.7144 345.229 45.5022C342.637 43.4267 346.029 38.4187 343.16 34.7598C341.399 32.5138 337.858 31.5145 336.235 32.6247C334.401 33.88 335.412 37.5646 334.122 37.914C333.017 38.2132 331.398 35.7491 331.129 35.3393Z" fill="#2F2E41"/>
<path d="M376.461 111.987C375.919 121.268 373.763 124.198 373.007 135.159C372.842 137.565 372.743 140.359 372.743 143.69C372.743 144.539 372.748 145.36 372.748 146.163C372.748 147.87 372.715 149.484 372.517 151.122C372.366 152.429 372.106 153.745 371.677 155.132H329.763C329.758 155.123 329.758 155.113 329.753 155.104C329.508 154.038 329.352 153.018 329.235 152.042C329.197 151.73 329.164 151.424 329.135 151.122C329.098 150.768 329.064 150.419 329.032 150.074C328.904 148.701 328.777 147.403 328.475 146.163C328.069 144.45 327.333 142.836 325.823 141.279C325.205 140.642 324.587 140.146 323.983 139.712C323.865 139.632 323.752 139.552 323.634 139.472C321.963 138.325 320.383 137.499 319.014 135.159C318.991 135.126 318.972 135.088 318.953 135.055C318.717 134.645 318.104 133.569 317.66 132.135C317.193 130.643 316.91 128.77 317.419 126.855C318.632 122.315 323.124 121.862 326.795 117.276C327.191 116.781 327.583 116.233 327.956 115.625C329.616 112.926 330.065 110.548 330.593 107.721C330.678 107.263 330.754 106.81 330.815 106.372C330.862 106.041 330.905 105.716 330.938 105.395C331.23 102.701 331.089 100.379 330.744 98.3031C329.622 91.5038 326.309 87.2949 328.649 81.1939C329.386 79.2784 330.428 77.8392 331.48 76.6077C333.707 73.9983 335.996 72.3044 335.6 68.9356C335.198 65.5382 332.622 65.071 332.335 62.103C332.188 60.6027 332.679 59.022 333.599 57.4696V57.465C336.543 52.468 343.895 47.8675 348.566 48.0138C349.429 48.0375 350.194 48.2308 350.831 48.6036C353.138 49.9625 352.176 52.9304 355.71 57.0922C358.338 60.1827 361.31 61.419 362.438 62.004C366.907 64.3351 370.54 71.2098 373.007 80.0002C373.026 80.0664 373.045 80.1323 373.064 80.2032C374.588 85.7096 375.664 91.9616 376.197 98.3031C376.424 100.988 376.556 103.687 376.584 106.357C376.608 108.49 376.56 110.34 376.461 111.987Z" fill="#6482AD"/>
<path d="M345.075 143.784L344.22 146.163L343.683 147.653L342.437 151.122L340.993 155.132H331.712L333.269 151.122L333.991 149.253L335.189 146.163L337.199 140.972L345.075 143.784Z" fill="#FFB6B6"/>
<path d="M373.154 79.1886C373.13 79.4954 373.097 79.835 373.064 80.2032C372.696 83.9496 371.828 90.6545 370.559 98.3031C369.889 102.337 369.105 106.636 368.223 110.906C366.326 120.121 363.967 129.195 361.301 135.159C360.825 136.235 360.334 137.207 359.833 138.066C359.451 138.722 359.05 139.368 358.63 140.005C357.271 142.095 355.747 144.077 354.167 145.927C354.105 146.007 354.034 146.082 353.964 146.163C353.709 146.464 353.445 146.762 353.181 147.059C351.888 148.517 350.567 149.876 349.288 151.122C347.731 152.641 346.23 153.986 344.886 155.132H329.815L329.753 155.104L327.583 154.141C327.583 154.141 328.201 153.415 329.234 152.042C329.447 151.763 329.673 151.457 329.919 151.122C330.221 150.711 330.546 150.258 330.895 149.767C331.622 148.739 332.448 147.531 333.335 146.163C335.052 143.515 337.01 140.26 338.987 136.49C339.214 136.051 339.445 135.607 339.676 135.159C339.681 135.145 339.691 135.131 339.695 135.117C340.087 134.352 340.474 133.564 340.861 132.762C344.14 125.939 345.079 120.277 345.348 118.442C345.726 115.846 346.249 112.218 346.108 108.226C346.013 105.593 345.631 102.809 344.721 100.044V100.04C344.532 99.4592 344.319 98.8789 344.079 98.3031C343.649 97.2698 343.14 96.2506 342.536 95.2456C339.87 90.8197 337.704 90.6356 335.982 85.8133C335.472 84.3837 334.316 81.1563 334.67 77.7495V77.7449C334.713 77.3249 334.783 76.9003 334.878 76.4754V76.4708C334.901 76.3529 334.934 76.2303 334.968 76.1123C335.236 75.0696 335.68 74.036 336.355 73.0545C337.671 71.1485 339.469 70.0159 341.078 69.3413L341.083 69.3365C342.941 68.5628 344.546 68.3976 344.857 68.3693C351.751 67.756 357.097 73.5501 360.018 76.7162C361.145 77.9382 362.179 78.9623 363.123 79.7972C370.469 86.3561 372.484 82.1659 373.007 80.0002C373.087 79.6652 373.13 79.3775 373.154 79.1886Z" fill="#6482AD"/>
<path d="M373.176 78.9434C373.176 78.9657 373.172 79.0416 373.154 79.1667C373.163 79.0996 373.168 79.0326 373.172 78.97C373.172 78.9567 373.172 78.9478 373.176 78.9434Z" fill="#6482AD"/>
<path d="M335.704 178.507H82.7714C80.4213 178.507 78.5059 180.418 78.5059 182.768C78.5059 185.122 80.4213 187.033 82.7714 187.033H335.704C338.053 187.033 339.965 185.122 339.965 182.768C339.965 180.418 338.053 178.507 335.704 178.507Z" fill="#E6E6E6"/>
<path d="M279.573 200.533H138.897C136.547 200.533 134.636 202.444 134.636 204.794C134.636 207.144 136.547 209.059 138.897 209.059H279.573C281.923 209.059 283.838 207.144 283.838 204.794C283.838 202.444 281.923 200.533 279.573 200.533Z" fill="#E6E6E6"/>
<path d="M110.916 38.3491L126.857 31.6406L133.694 45.6569L116.943 52.4942L110.916 38.3491Z" fill="#FFB6B6"/>
<path opacity="0.1" d="M110.916 38.3491L126.857 31.6406L133.694 45.6569L116.943 52.4942L110.916 38.3491Z" fill="black"/>
<path d="M113.182 33.008L128.908 51.1268C128.908 51.1268 117.968 85.655 107.029 88.7317C96.0893 91.8085 75.9194 106.85 75.9194 106.85L50.6216 90.441L62.9286 72.3223C62.9286 72.3223 92.6707 31.6406 100.534 31.6406C108.396 31.6406 113.182 33.008 113.182 33.008Z" fill="#6482AD"/>
<path d="M91.9356 151.122H55.329L53.0146 148.028L43.5655 135.396L41.3913 132.49C41.3913 132.49 33.1866 117.448 34.8959 103.774C36.6052 90.099 54.3821 87.0223 54.3821 87.0223H55.1137L76.8766 106.146L75.5775 123.943L82.4695 135.396L91.9356 151.122Z" fill="#2F2E41"/>
<path d="M62.826 151.122H53.0145V136.592L62.826 151.122Z" fill="#2F2E41"/>
<path d="M274.446 129.065L273.226 135.396L270.197 151.122H209.349C209.824 147.597 210.473 142.524 211.167 137.047C211.236 136.5 211.307 135.95 211.376 135.396C213.116 121.629 215.02 106.05 215.02 106.05L223.02 107.021L238.54 108.902L244.865 109.667L261.801 111.722C270.245 112.744 276.053 120.71 274.446 129.065Z" fill="#F2F2F2"/>
<path d="M360.558 151.122H327.554C328.057 150.53 328.341 150.188 328.341 150.188L338.234 148.554L358.619 145.19C358.619 145.19 359.549 147.594 360.558 151.122Z" fill="#2F2E41"/>
<path d="M220.566 45.1868L234.919 65.4847L209.883 66.2323L207.196 47.1571L220.566 45.1868Z" fill="#A0616A"/>
<path opacity="0.1" d="M220.566 45.1868L234.919 65.4847L209.883 66.2323L207.196 47.1571L220.566 45.1868Z" fill="black"/>
<path d="M149.785 87.2426C147.944 81.93 143.71 78.574 140.329 79.7465C136.948 80.9191 135.701 86.1756 137.544 91.4898C138.251 93.6227 139.459 95.5553 141.066 97.1258L149.153 119.537L159.589 115.518L150.509 93.851C150.799 91.622 150.551 89.356 149.785 87.2426Z" fill="#A0616A"/>
<path d="M246.939 76.8998L246.919 97.5859L244.995 105.227L241.036 120.942L238.154 135.396L236.007 146.165L235.241 150.011C234.664 150.397 234.089 150.766 233.515 151.122H183.511C180.67 149.416 179.08 148.089 179.08 148.089C179.08 148.089 179.866 147.351 180.765 146.165C182.283 144.161 184.119 140.879 182.994 137.745C182.759 137.088 182.697 136.288 182.769 135.396C183.227 129.509 189.401 119.554 189.401 119.554L188.122 104.779L187.562 98.3038L191.515 66.7326L204.399 59.2424L206.624 59.0272L228.582 57.8409L237.657 58.364L238.071 58.4768L246.939 76.8998Z" fill="#CCCCCC"/>
<path d="M247.914 151.122H236.974L236.492 146.165L236.482 146.066L239.579 145.854L247.637 145.303L247.777 148.271L247.887 150.547L247.914 151.122Z" fill="#FFB6B6"/>
<path d="M250.607 81.9012L255.203 108.864L251.452 135.396L250.868 139.526L249.835 146.817L249.517 149.06L249.528 149.303L249.606 151.122H236.616L236.137 146.165L236.096 145.72L235.118 135.567L235.101 135.396L233.026 113.865L237.094 98.3038L237.395 97.1585V97.1551L239.165 70.5103L237.794 58.4016L237.78 58.2888C237.808 58.3059 237.832 58.323 237.859 58.34C237.931 58.3845 238.003 58.4289 238.071 58.4768C246.057 63.5432 250.816 72.4317 250.607 81.9012Z" fill="#CCCCCC"/>
<path d="M196.169 71.8992L191.173 66.7322C191.173 66.7322 180.479 71.5534 179.946 74.2281C179.413 76.9028 160.531 116.187 160.531 116.187L152.316 94.247L141.623 101.386C141.623 101.386 150.203 135.45 158.227 137.049C166.252 138.648 193.145 96.7314 193.145 96.7314L196.169 71.8992Z" fill="#CCCCCC"/>
<path d="M399.011 135.159H9.98432C4.47792 135.159 0 139.641 0 145.148C0 150.654 4.47792 155.132 9.98432 155.132H399.011C404.517 155.132 409 150.654 409 145.148C409 139.641 404.517 135.159 399.011 135.159Z" fill="#E6E6E6"/>
<path d="M244.662 104.721L243.906 140.016C243.832 143.433 241.042 146.165 237.624 146.165H172.697C169.361 146.165 166.606 143.556 166.424 140.225L164.494 104.93C164.297 101.33 167.163 98.3039 170.768 98.3039H238.381C241.903 98.3039 244.737 101.2 244.662 104.721Z" fill="#3F3D56"/>
<path d="M139.848 46.869C148.427 46.869 155.382 39.9142 155.382 31.335C155.382 22.7558 148.427 15.801 139.848 15.801C131.269 15.801 124.314 22.7558 124.314 31.335C124.314 39.9142 131.269 46.869 139.848 46.869Z" fill="#FFB6B6"/>
<path d="M113.866 71.9803L115.575 90.4409L127.199 137.276L117.157 140.796L100.192 89.7572L97.8484 69.2454L113.866 71.9803Z" fill="#FFB6B6"/>
<path d="M109.243 104.721L108.486 140.016C108.413 143.433 105.622 146.165 102.205 146.165H37.2778C33.9412 146.165 31.1865 143.556 31.0044 140.225L29.0749 104.93C28.8781 101.33 31.7436 98.3039 35.3483 98.3039H102.961C106.484 98.3039 109.318 101.2 109.243 104.721Z" fill="#3F3D56"/>
<path d="M129.05 146.403C135.825 146.403 141.318 143.974 141.318 140.977C141.318 137.98 135.825 135.551 129.05 135.551C122.274 135.551 116.782 137.98 116.782 140.977C116.782 143.974 122.274 146.403 129.05 146.403Z" fill="#FFB6B6"/>
<path d="M89.7649 74.8028L96.7731 37.4522C96.7731 37.4522 116.259 34.7173 116.943 41.2127C117.627 47.7081 116.454 79.452 116.454 79.452L89.7649 74.8028Z" fill="#6482AD"/>
<path d="M133.577 33.7775C133.577 33.7775 143.186 30.348 147.24 28.5027C151.293 26.6574 159.346 39.528 159.525 32.7306C159.704 25.9333 156.922 23.0827 156.922 23.0827C156.922 23.0827 156.227 8.21249 141.245 10.0716C141.245 10.0716 144.541 2.63188 133.724 1.48146C122.907 0.331035 106.079 26.452 107.586 30.3556C109.093 34.2592 110.9 37.4865 106.624 41.6604C102.348 45.8342 94.3415 69.3903 100.433 75.7291C106.525 82.0679 106.925 84.8186 102.751 88.7621C98.577 92.7056 88.7114 101.28 99.3784 102.769C110.045 104.257 98.4025 103.146 106.355 96.1506C114.307 89.1556 125.912 89.4413 121.579 78.2184C117.246 66.9954 124.774 50.913 123.832 48.4732C122.89 46.0335 125.942 30.5408 125.942 30.5408C125.942 30.5408 133.046 29.4971 133.577 33.7775Z" fill="#2F2E41"/>
<path d="M212.892 52.5337C222.231 52.5337 229.802 44.9628 229.802 35.6238C229.802 26.2847 222.231 18.7139 212.892 18.7139C203.553 18.7139 195.982 26.2847 195.982 35.6238C195.982 44.9628 203.553 52.5337 212.892 52.5337Z" fill="#A0616A"/>
<path d="M214.242 12.8896C213.752 13.1752 213.097 12.7431 212.94 12.1987C212.783 11.6542 212.966 11.0762 213.147 10.5394L214.06 7.8371C214.707 5.92054 215.393 3.93702 216.795 2.47827C218.91 0.276526 222.272 -0.283587 225.298 0.122195C229.184 0.643301 233.018 2.74757 234.825 6.22724C236.632 9.70692 235.862 14.5623 232.597 16.7333C237.251 22.0667 238.873 28.0107 238.617 35.0841C238.361 42.1575 230.652 48.6673 225.625 53.6503C224.503 52.9698 223.482 49.7807 224.1 48.6222C224.717 47.4636 223.833 46.1214 224.597 45.0543C225.362 43.9872 226.001 45.6864 225.228 44.6253C224.741 43.9557 226.644 42.4154 225.919 42.0147C222.413 40.0764 221.246 35.7056 219.044 32.3585C216.388 28.3214 211.841 25.5874 207.03 25.1338C204.379 24.8839 201.58 25.3365 199.407 26.8752C197.235 28.4139 195.828 31.1636 196.332 33.7777C195.027 32.4529 194.378 30.5115 194.623 28.6684C194.868 26.8253 196.002 25.1209 197.607 24.1829C196.631 20.9548 197.467 17.2416 199.733 14.7436C201.999 12.2456 211.19 12.671 214.498 13.3284L214.242 12.8896Z" fill="#2F2E41"/>
<path d="M214.755 25.2318C219.136 25.7047 222.3 29.4997 224.971 33.0043C226.51 35.0243 228.123 37.255 228.084 39.7945C228.045 42.362 226.329 44.5642 225.508 46.9974C224.167 50.9746 225.474 55.7065 228.666 58.4316C225.512 59.0301 222.102 56.6651 221.558 53.5011C220.924 49.8179 223.716 46.263 223.385 42.5403C223.094 39.2605 220.509 36.7363 218.312 34.2841C216.115 31.8318 214.051 28.5777 215.062 25.444L214.755 25.2318Z" fill="#2F2E41"/>
<path d="M280.251 137.296C275.912 139.765 273.668 144.004 275.239 146.766C276.81 149.527 281.601 149.764 285.942 147.294C287.689 146.332 289.181 144.964 290.291 143.307L308.546 132.617L303.347 124.158L285.903 135.594C283.91 135.702 281.972 136.286 280.251 137.296Z" fill="#FFB6B6"/>
<path d="M342.057 58.9056C341.511 58.6894 336.725 56.8768 332.355 59.2699C327.335 62.019 326.56 68.2946 326.288 70.4957C325.66 75.5803 327.511 76.72 327.901 81.8675C328.632 91.498 330.559 80.5115 327.482 84.9074C326.416 86.429 315.536 110.009 309.535 114.627C297.865 123.61 290.454 129.936 290.454 129.936L298.914 139.126C298.914 139.126 312.283 135.564 324.1 127.891C336.221 120.021 342.281 116.086 346.97 108.388C347.374 107.725 357.035 91.3183 351.846 73.1766C350.663 69.0385 348.494 61.4567 342.057 58.9056Z" fill="#6482AD"/>
<path d="M385.744 104.721L384.987 140.016C384.914 143.433 382.123 146.165 378.706 146.165H313.779C310.442 146.165 307.687 143.556 307.505 140.225L305.576 104.93C305.379 101.33 308.245 98.3039 311.849 98.3039H379.462C382.985 98.3039 385.819 101.2 385.744 104.721Z" fill="#3F3D56"/>
</g>
<defs>
<clipPath id="clip0_15_169">
<rect width="409" height="209.059" fill="white"/>
</clipPath>
</defs>
</svg>
